<?xml version="1.0" standalone="no"?>
<!DOCTYPE svg PUBLIC "-//W3C//DTD SVG 20010904//EN"
 "http://www.w3.org/TR/2001/REC-SVG-20010904/DTD/svg10.dtd">
<svg version="1.0" xmlns="http://www.w3.org/2000/svg"
 width="535.000000pt" height="535.000000pt" viewBox="0 0 535.000000 535.000000"
 preserveAspectRatio="xMidYMid meet">
<metadata>
Created by potrace 1.14, written by Peter Selinger 2001-2017
</metadata>
<g transform="translate(0.000000,535.000000) scale(0.100000,-0.100000)"
fill="#000000" stroke="none">
<path d="M4668 3805 c-2 -1 -44 -5 -94 -8 -166 -11 -333 -81 -439 -184 -74
-71 -90 -94 -134 -185 -49 -103 -67 -210 -66 -395 0 -82 -3 -134 -10 -136 -5
-2 -74 -3 -152 -2 l-143 1 0 -203 c0 -186 1 -203 18 -204 9 -1 77 -1 150 -1
128 0 132 0 133 -21 1 -12 2 -326 3 -697 l1 -675 278 -3 277 -2 0 698 0 699
188 1 c103 0 196 1 207 1 19 1 20 8 20 201 0 110 -2 201 -5 201 -3 1 -93 3
-200 4 -107 2 -198 3 -202 4 -5 0 -8 56 -8 124 0 197 33 277 134 329 51 26
165 32 245 11 31 -8 65 -17 77 -19 20 -6 20 -3 20 211 l0 216 -26 5 c-14 3
-31 7 -38 10 -23 7 -228 24 -234 19z"/>
<path d="M2760 3226 l0 -540 -37 50 c-50 66 -74 89 -132 124 -91 57 -172 75
-326 75 -117 0 -194 -12 -273 -41 -59 -23 -140 -62 -152 -74 -3 -3 -21 -17
-40 -32 -189 -143 -311 -376 -345 -658 -7 -51 -6 -330 0 -360 3 -14 10 -51 15
-83 40 -215 179 -443 319 -521 9 -5 18 -12 21 -16 10 -12 132 -62 193 -79 87
-24 251 -27 352 -6 151 32 284 118 383 250 l22 29 0 -127 0 -127 280 0 280 0
0 1335 c0 1061 -3 1335 -12 1336 -7 0 -133 1 -281 2 l-267 2 0 -539z m-231
-731 c109 -38 193 -136 227 -265 17 -64 20 -343 4 -384 -5 -14 -8 -26 -5 -26
10 0 -29 -109 -55 -155 -91 -158 -244 -221 -420 -174 -132 36 -235 171 -257
339 -8 57 -8 209 -1 275 22 192 122 343 259 389 82 27 174 28 248 1z"/>
<path d="M706 1609 c-71 -24 -118 -58 -156 -115 -75 -108 -55 -266 44 -360 66
-62 145 -88 254 -82 139 7 227 60 282 169 35 67 32 180 -6 249 -74 136 -252
195 -418 139z"/>
</g>
</svg>
