<?xml version="1.0" standalone="no"?>
<!DOCTYPE svg PUBLIC "-//W3C//DTD SVG 20010904//EN"
 "http://www.w3.org/TR/2001/REC-SVG-20010904/DTD/svg10.dtd">
<svg version="1.0" xmlns="http://www.w3.org/2000/svg"
 width="892.000000pt" height="892.000000pt" viewBox="0 0 892.000000 892.000000"
 preserveAspectRatio="xMidYMid meet">
<metadata>
Created by potrace 1.14, written by Peter Selinger 2001-2017
</metadata>
<g transform="translate(0.000000,892.000000) scale(0.100000,-0.100000)"
fill="#000000" stroke="none">
<path d="M6875 6343 c-332 -39 -574 -149 -762 -346 -90 -95 -138 -163 -193
-279 -81 -169 -110 -352 -110 -695 l0 -183 -250 0 -250 0 0 -345 0 -345 250 0
250 0 0 -1165 0 -1165 465 0 465 0 0 1165 0 1165 345 0 345 0 -2 343 -3 342
-344 3 -343 2 5 228 c5 245 12 289 63 382 92 168 327 232 594 160 41 -11 76
-20 78 -20 1 0 2 162 2 359 l0 360 -52 10 c-108 22 -207 30 -363 29 -88 0
-173 -3 -190 -5z"/>
<path d="M3848 5383 l-3 -898 -44 65 c-145 213 -354 324 -655 349 -233 20
-498 -22 -681 -108 -361 -169 -632 -517 -744 -956 -57 -224 -79 -489 -61 -743
26 -369 117 -651 282 -874 231 -312 553 -468 963 -468 244 0 444 54 619 167
85 55 213 176 268 255 23 32 45 58 49 58 5 0 9 -92 9 -205 l0 -205 465 0 465
0 0 2230 0 2230 -465 0 -465 0 -2 -897z m-434 -1209 c187 -48 352 -209 415
-402 35 -107 44 -219 38 -452 -4 -145 -11 -239 -22 -290 -60 -271 -217 -469
-426 -541 -90 -30 -251 -37 -339 -15 -236 60 -394 239 -455 516 -9 43 -19 144
-22 236 -9 255 20 435 97 599 88 190 213 301 390 349 75 20 246 20 324 0z"/>
</g>
</svg>
